<svg width="1440" height="920" viewBox="0 0 1440 920" fill="none" xmlns="http://www.w3.org/2000/svg">
<g clip-path="url(#clip0_63_37065)">
<rect width="1440" height="919" transform="translate(0 0.741211)" fill="#002951" fill-opacity="0.8"/>
<rect x="-9.5" y="1.24121" width="73" height="73" stroke="#F1F2F7"/>
<rect x="63.5" y="1.24121" width="73" height="73" stroke="#F1F2F7"/>
<rect x="136.5" y="1.24121" width="73" height="73" stroke="#F1F2F7"/>
<rect x="209.5" y="1.24121" width="73" height="73" stroke="#F1F2F7"/>
<rect x="282.5" y="1.24121" width="73" height="73" stroke="#F1F2F7"/>
<rect x="355.5" y="1.24121" width="73" height="73" stroke="#F1F2F7"/>
<rect x="428.5" y="1.24121" width="73" height="73" stroke="#F1F2F7"/>
<rect x="501.5" y="1.24121" width="73" height="73" stroke="#F1F2F7"/>
<rect x="574.5" y="1.24121" width="73" height="73" stroke="#F1F2F7"/>
<rect x="647.5" y="1.24121" width="73" height="73" stroke="#F1F2F7"/>
<rect x="720.5" y="1.24121" width="73" height="73" stroke="#F1F2F7"/>
<rect x="793.5" y="1.24121" width="73" height="73" stroke="#F1F2F7"/>
<rect x="866.5" y="1.24121" width="73" height="73" stroke="#F1F2F7"/>
<rect x="939.5" y="1.24121" width="73" height="73" stroke="#F1F2F7"/>
<rect x="1012.5" y="1.24121" width="73" height="73" stroke="#F1F2F7"/>
<rect x="1085.5" y="1.24121" width="73" height="73" stroke="#F1F2F7"/>
<rect x="1158.5" y="1.24121" width="73" height="73" stroke="#F1F2F7"/>
<rect x="1231.5" y="1.24121" width="73" height="73" stroke="#F1F2F7"/>
<rect x="1304.5" y="1.24121" width="73" height="73" stroke="#F1F2F7"/>
<rect x="1377.5" y="1.24121" width="73" height="73" stroke="#F1F2F7"/>
<rect x="-9.5" y="74.2412" width="73" height="73" stroke="#F1F2F7"/>
<rect x="63.5" y="74.2412" width="73" height="73" stroke="#F1F2F7"/>
<rect x="136.5" y="74.2412" width="73" height="73" stroke="#F1F2F7"/>
<rect x="209.5" y="74.2412" width="73" height="73" stroke="#F1F2F7"/>
<rect x="282.5" y="74.2412" width="73" height="73" stroke="#F1F2F7"/>
<rect x="355.5" y="74.2412" width="73" height="73" stroke="#F1F2F7"/>
<rect x="428.5" y="74.2412" width="73" height="73" stroke="#F1F2F7"/>
<rect x="501.5" y="74.2412" width="73" height="73" stroke="#F1F2F7"/>
<rect x="574.5" y="74.2412" width="73" height="73" stroke="#F1F2F7"/>
<rect x="647.5" y="74.2412" width="73" height="73" stroke="#F1F2F7"/>
<rect x="720.5" y="74.2412" width="73" height="73" stroke="#F1F2F7"/>
<rect x="793.5" y="74.2412" width="73" height="73" stroke="#F1F2F7"/>
<rect x="866.5" y="74.2412" width="73" height="73" stroke="#F1F2F7"/>
<rect x="939.5" y="74.2412" width="73" height="73" stroke="#F1F2F7"/>
<rect x="1012.5" y="74.2412" width="73" height="73" stroke="#F1F2F7"/>
<rect x="1085.5" y="74.2412" width="73" height="73" stroke="#F1F2F7"/>
<rect x="1158.5" y="74.2412" width="73" height="73" stroke="#F1F2F7"/>
<rect x="1231.5" y="74.2412" width="73" height="73" stroke="#F1F2F7"/>
<rect x="1304.5" y="74.2412" width="73" height="73" stroke="#F1F2F7"/>
<rect x="1377.5" y="74.2412" width="73" height="73" stroke="#F1F2F7"/>
<rect x="-9.5" y="147.241" width="73" height="73" stroke="#F1F2F7"/>
<rect x="63.5" y="147.241" width="73" height="73" stroke="#F1F2F7"/>
<rect x="136.5" y="147.241" width="73" height="73" fill="#273240" stroke="#F1F2F7"/>
<rect x="209.5" y="147.241" width="73" height="73" fill="#273240" stroke="#F1F2F7"/>
<rect x="282.5" y="147.241" width="73" height="73" fill="#273240" stroke="#F1F2F7"/>
<rect x="355.5" y="147.241" width="73" height="73" stroke="#F1F2F7"/>
<rect x="428.5" y="147.241" width="73" height="73" stroke="#F1F2F7"/>
<rect x="501.5" y="147.241" width="73" height="73" fill="#273240" fill-opacity="0.3" stroke="#F1F2F7"/>
<rect x="574.5" y="147.241" width="73" height="73" stroke="#F1F2F7"/>
<rect x="647.5" y="147.241" width="73" height="73" fill="#273240" fill-opacity="0.3" stroke="#F1F2F7"/>
<rect x="720.5" y="147.241" width="73" height="73" stroke="#F1F2F7"/>
<rect x="793.5" y="147.241" width="73" height="73" fill="#273240" fill-opacity="0.3" stroke="#F1F2F7"/>
<rect x="866.5" y="147.241" width="73" height="73" stroke="#F1F2F7"/>
<rect x="939.5" y="147.241" width="73" height="73" stroke="#F1F2F7"/>
<rect x="1012.5" y="147.241" width="73" height="73" stroke="#F1F2F7"/>
<rect x="1085.5" y="147.241" width="73" height="73" stroke="#F1F2F7"/>
<rect x="1158.5" y="147.241" width="73" height="73" fill="#273240" stroke="#F1F2F7"/>
<rect x="1231.5" y="147.241" width="73" height="73" fill="#273240" stroke="#F1F2F7"/>
<rect x="1304.5" y="147.241" width="73" height="73" fill="#273240" stroke="#F1F2F7"/>
<rect x="1377.5" y="147.241" width="73" height="73" stroke="#F1F2F7"/>
<rect x="-9.5" y="220.241" width="73" height="73" stroke="#F1F2F7"/>
<rect x="63.5" y="220.241" width="73" height="73" stroke="#F1F2F7"/>
<rect x="136.5" y="220.241" width="73" height="73" fill="#273240" stroke="#F1F2F7"/>
<rect x="209.5" y="220.241" width="73" height="73" stroke="#F1F2F7"/>
<rect x="282.5" y="220.241" width="73" height="73" stroke="#F1F2F7"/>
<rect x="355.5" y="220.241" width="73" height="73" stroke="#F1F2F7"/>
<rect x="428.5" y="220.241" width="73" height="73" stroke="#F1F2F7"/>
<rect x="501.5" y="220.241" width="73" height="73" stroke="#F1F2F7"/>
<rect x="574.5" y="220.241" width="73" height="73" stroke="#F1F2F7"/>
<rect x="647.5" y="220.241" width="73" height="73" stroke="#F1F2F7"/>
<rect x="720.5" y="220.241" width="73" height="73" stroke="#F1F2F7"/>
<rect x="793.5" y="220.241" width="73" height="73" stroke="#F1F2F7"/>
<rect x="866.5" y="220.241" width="73" height="73" stroke="#F1F2F7"/>
<rect x="939.5" y="220.241" width="73" height="73" stroke="#F1F2F7"/>
<rect x="1012.5" y="220.241" width="73" height="73" stroke="#F1F2F7"/>
<rect x="1085.5" y="220.241" width="73" height="73" stroke="#F1F2F7"/>
<rect x="1158.5" y="220.241" width="73" height="73" stroke="#F1F2F7"/>
<rect x="1231.5" y="220.241" width="73" height="73" stroke="#F1F2F7"/>
<rect x="1304.5" y="220.241" width="73" height="73" fill="#273240" stroke="#F1F2F7"/>
<rect x="1377.5" y="220.241" width="73" height="73" stroke="#F1F2F7"/>
<rect x="-9.5" y="293.241" width="73" height="73" stroke="#F1F2F7"/>
<rect x="63.5" y="293.241" width="73" height="73" stroke="#F1F2F7"/>
<rect x="136.5" y="293.241" width="73" height="73" stroke="#F1F2F7"/>
<rect x="209.5" y="293.241" width="73" height="73" stroke="#F1F2F7"/>
<rect x="282.5" y="293.241" width="73" height="73" stroke="#F1F2F7"/>
<rect x="355.5" y="293.241" width="73" height="73" stroke="#F1F2F7"/>
<rect x="428.5" y="293.241" width="73" height="73" stroke="#F1F2F7"/>
<rect x="501.5" y="293.241" width="73" height="73" stroke="#F1F2F7"/>
<rect x="574.5" y="293.241" width="73" height="73" stroke="#F1F2F7"/>
<rect x="647.5" y="293.241" width="73" height="73" stroke="#F1F2F7"/>
<rect x="720.5" y="293.241" width="73" height="73" stroke="#F1F2F7"/>
<rect x="793.5" y="293.241" width="73" height="73" stroke="#F1F2F7"/>
<rect x="866.5" y="293.241" width="73" height="73" stroke="#F1F2F7"/>
<rect x="939.5" y="293.241" width="73" height="73" stroke="#F1F2F7"/>
<rect x="1012.5" y="293.241" width="73" height="73" stroke="#F1F2F7"/>
<rect x="1085.5" y="293.241" width="73" height="73" stroke="#F1F2F7"/>
<rect x="1158.5" y="293.241" width="73" height="73" stroke="#F1F2F7"/>
<rect x="1231.5" y="293.241" width="73" height="73" stroke="#F1F2F7"/>
<rect x="1304.5" y="293.241" width="73" height="73" stroke="#F1F2F7"/>
<rect x="1377.5" y="293.241" width="73" height="73" stroke="#F1F2F7"/>
<rect x="-9.5" y="366.241" width="73" height="73" stroke="#F1F2F7"/>
<rect x="63.5" y="366.241" width="73" height="73" stroke="#F1F2F7"/>
<rect x="136.5" y="366.241" width="73" height="73" stroke="#F1F2F7"/>
<rect x="209.5" y="366.241" width="73" height="73" stroke="#F1F2F7"/>
<rect x="282.5" y="366.241" width="73" height="73" stroke="#F1F2F7"/>
<rect x="355.5" y="366.241" width="73" height="73" stroke="#F1F2F7"/>
<rect x="428.5" y="366.241" width="73" height="73" stroke="#F1F2F7"/>
<rect x="501.5" y="366.241" width="73" height="73" stroke="#F1F2F7"/>
<rect x="574.5" y="366.241" width="73" height="73" stroke="#F1F2F7"/>
<rect x="647.5" y="366.241" width="73" height="73" stroke="#F1F2F7"/>
<rect x="720.5" y="366.241" width="73" height="73" stroke="#F1F2F7"/>
<rect x="793.5" y="366.241" width="73" height="73" stroke="#F1F2F7"/>
<rect x="866.5" y="366.241" width="73" height="73" stroke="#F1F2F7"/>
<rect x="939.5" y="366.241" width="73" height="73" stroke="#F1F2F7"/>
<rect x="1012.5" y="366.241" width="73" height="73" stroke="#F1F2F7"/>
<rect x="1085.5" y="366.241" width="73" height="73" stroke="#F1F2F7"/>
<rect x="1158.5" y="366.241" width="73" height="73" stroke="#F1F2F7"/>
<rect x="1231.5" y="366.241" width="73" height="73" stroke="#F1F2F7"/>
<rect x="1304.5" y="366.241" width="73" height="73" stroke="#F1F2F7"/>
<rect x="1377.5" y="366.241" width="73" height="73" stroke="#F1F2F7"/>
<rect x="-9.5" y="439.241" width="73" height="73" stroke="#F1F2F7"/>
<rect x="63.5" y="439.241" width="73" height="73" stroke="#F1F2F7"/>
<rect x="136.5" y="439.241" width="73" height="73" fill="#273240" stroke="#F1F2F7"/>
<rect x="209.5" y="439.241" width="73" height="73" stroke="#F1F2F7"/>
<rect x="282.5" y="439.241" width="73" height="73" stroke="#F1F2F7"/>
<rect x="355.5" y="439.241" width="73" height="73" stroke="#F1F2F7"/>
<rect x="428.5" y="439.241" width="73" height="73" stroke="#F1F2F7"/>
<rect x="501.5" y="439.241" width="73" height="73" stroke="#F1F2F7"/>
<rect x="574.5" y="439.241" width="73" height="73" fill="#273240" stroke="#F1F2F7"/>
<rect x="647.5" y="439.241" width="73" height="73" fill="#273240" stroke="#F1F2F7"/>
<rect x="720.5" y="439.241" width="73" height="73" stroke="#F1F2F7"/>
<rect x="793.5" y="439.241" width="73" height="73" stroke="#F1F2F7"/>
<rect x="866.5" y="439.241" width="73" height="73" stroke="#F1F2F7"/>
<rect x="939.5" y="439.241" width="73" height="73" stroke="#F1F2F7"/>
<rect x="1012.5" y="439.241" width="73" height="73" stroke="#F1F2F7"/>
<rect x="1085.5" y="439.241" width="73" height="73" stroke="#F1F2F7"/>
<rect x="1158.5" y="439.241" width="73" height="73" stroke="#F1F2F7"/>
<rect x="1231.5" y="439.241" width="73" height="73" fill="#273240" stroke="#F1F2F7"/>
<rect x="1304.5" y="439.241" width="73" height="73" stroke="#F1F2F7"/>
<rect x="1377.5" y="439.241" width="73" height="73" stroke="#F1F2F7"/>
<rect x="-9.5" y="512.241" width="73" height="73" stroke="#F1F2F7"/>
<rect x="63.5" y="512.241" width="73" height="73" stroke="#F1F2F7"/>
<rect x="136.5" y="512.241" width="73" height="73" stroke="#F1F2F7"/>
<rect x="209.5" y="512.241" width="73" height="73" stroke="#F1F2F7"/>
<rect x="282.5" y="512.241" width="73" height="73" stroke="#F1F2F7"/>
<rect x="355.5" y="512.241" width="73" height="73" stroke="#F1F2F7"/>
<rect x="428.5" y="512.241" width="73" height="73" stroke="#F1F2F7"/>
<rect x="501.5" y="512.241" width="73" height="73" stroke="#F1F2F7"/>
<rect x="574.5" y="512.241" width="73" height="73" stroke="#F1F2F7"/>
<rect x="647.5" y="512.241" width="73" height="73" stroke="#F1F2F7"/>
<rect x="720.5" y="512.241" width="73" height="73" stroke="#F1F2F7"/>
<rect x="793.5" y="512.241" width="73" height="73" stroke="#F1F2F7"/>
<rect x="866.5" y="512.241" width="73" height="73" stroke="#F1F2F7"/>
<rect x="939.5" y="512.241" width="73" height="73" stroke="#F1F2F7"/>
<rect x="1012.5" y="512.241" width="73" height="73" stroke="#F1F2F7"/>
<rect x="1085.5" y="512.241" width="73" height="73" stroke="#F1F2F7"/>
<rect x="1158.5" y="512.241" width="73" height="73" stroke="#F1F2F7"/>
<rect x="1231.5" y="512.241" width="73" height="73" stroke="#F1F2F7"/>
<rect x="1304.5" y="512.241" width="73" height="73" stroke="#F1F2F7"/>
<rect x="1377.5" y="512.241" width="73" height="73" stroke="#F1F2F7"/>
<rect x="-9.5" y="585.241" width="73" height="73" stroke="#F1F2F7"/>
<rect x="63.5" y="585.241" width="73" height="73" stroke="#F1F2F7"/>
<rect x="136.5" y="585.241" width="73" height="73" stroke="#F1F2F7"/>
<rect x="209.5" y="585.241" width="73" height="73" stroke="#F1F2F7"/>
<rect x="282.5" y="585.241" width="73" height="73" stroke="#F1F2F7"/>
<rect x="355.5" y="585.241" width="73" height="73" stroke="#F1F2F7"/>
<rect x="428.5" y="585.241" width="73" height="73" stroke="#F1F2F7"/>
<rect x="501.5" y="585.241" width="73" height="73" stroke="#F1F2F7"/>
<rect x="574.5" y="585.241" width="73" height="73" stroke="#F1F2F7"/>
<rect x="647.5" y="585.241" width="73" height="73" stroke="#F1F2F7"/>
<rect x="720.5" y="585.241" width="73" height="73" stroke="#F1F2F7"/>
<rect x="793.5" y="585.241" width="73" height="73" stroke="#F1F2F7"/>
<rect x="866.5" y="585.241" width="73" height="73" stroke="#F1F2F7"/>
<rect x="939.5" y="585.241" width="73" height="73" stroke="#F1F2F7"/>
<rect x="1012.5" y="585.241" width="73" height="73" stroke="#F1F2F7"/>
<rect x="1085.5" y="585.241" width="73" height="73" stroke="#F1F2F7"/>
<rect x="1158.5" y="585.241" width="73" height="73" stroke="#F1F2F7"/>
<rect x="1231.5" y="585.241" width="73" height="73" stroke="#F1F2F7"/>
<rect x="1304.5" y="585.241" width="73" height="73" stroke="#F1F2F7"/>
<rect x="1377.5" y="585.241" width="73" height="73" stroke="#F1F2F7"/>
<rect x="-9.5" y="658.241" width="73" height="73" stroke="#F1F2F7"/>
<rect x="63.5" y="658.241" width="73" height="73" stroke="#F1F2F7"/>
<rect x="136.5" y="658.241" width="73" height="73" fill="#273240" stroke="#F1F2F7"/>
<rect x="209.5" y="658.241" width="73" height="73" stroke="#F1F2F7"/>
<rect x="282.5" y="658.241" width="73" height="73" stroke="#F1F2F7"/>
<rect x="355.5" y="658.241" width="73" height="73" stroke="#F1F2F7"/>
<rect x="428.5" y="658.241" width="73" height="73" stroke="#F1F2F7"/>
<rect x="501.5" y="658.241" width="73" height="73" stroke="#F1F2F7"/>
<rect x="574.5" y="658.241" width="73" height="73" stroke="#F1F2F7"/>
<rect x="647.5" y="658.241" width="73" height="73" stroke="#F1F2F7"/>
<rect x="720.5" y="658.241" width="73" height="73" stroke="#F1F2F7"/>
<rect x="793.5" y="658.241" width="73" height="73" stroke="#F1F2F7"/>
<rect x="866.5" y="658.241" width="73" height="73" stroke="#F1F2F7"/>
<rect x="939.5" y="658.241" width="73" height="73" stroke="#F1F2F7"/>
<rect x="1012.5" y="658.241" width="73" height="73" stroke="#F1F2F7"/>
<rect x="1085.5" y="658.241" width="73" height="73" stroke="#F1F2F7"/>
<rect x="1158.5" y="658.241" width="73" height="73" stroke="#F1F2F7"/>
<rect x="1231.5" y="658.241" width="73" height="73" fill="#273240" stroke="#F1F2F7"/>
<rect x="1304.5" y="658.241" width="73" height="73" stroke="#F1F2F7"/>
<rect x="1377.5" y="658.241" width="73" height="73" stroke="#F1F2F7"/>
<rect x="-9.5" y="731.241" width="73" height="73" stroke="#F1F2F7"/>
<rect x="63.5" y="731.241" width="73" height="73" stroke="#F1F2F7"/>
<rect x="136.5" y="731.241" width="73" height="73" fill="#273240" stroke="#F1F2F7"/>
<rect x="209.5" y="731.241" width="73" height="73" fill="#273240" stroke="#F1F2F7"/>
<rect x="282.5" y="731.241" width="73" height="73" stroke="#F1F2F7"/>
<rect x="355.5" y="731.241" width="73" height="73" stroke="#F1F2F7"/>
<rect x="428.5" y="731.241" width="73" height="73" stroke="#F1F2F7"/>
<rect x="501.5" y="731.241" width="73" height="73" stroke="#F1F2F7"/>
<rect x="574.5" y="731.241" width="73" height="73" stroke="#F1F2F7"/>
<rect x="647.5" y="731.241" width="73" height="73" fill="#273240" fill-opacity="0.3" stroke="#F1F2F7"/>
<rect x="720.5" y="731.241" width="73" height="73" stroke="#F1F2F7"/>
<rect x="793.5" y="731.241" width="73" height="73" fill="#273240" fill-opacity="0.3" stroke="#F1F2F7"/>
<rect x="866.5" y="731.241" width="73" height="73" stroke="#F1F2F7"/>
<rect x="939.5" y="731.241" width="73" height="73" fill="#273240" fill-opacity="0.3" stroke="#F1F2F7"/>
<rect x="1012.5" y="731.241" width="73" height="73" stroke="#F1F2F7"/>
<rect x="1085.5" y="731.241" width="73" height="73" stroke="#F1F2F7"/>
<rect x="1158.5" y="731.241" width="73" height="73" fill="#273240" stroke="#F1F2F7"/>
<rect x="1231.5" y="731.241" width="73" height="73" fill="#273240" stroke="#F1F2F7"/>
<rect x="1304.5" y="731.241" width="73" height="73" stroke="#F1F2F7"/>
<rect x="1377.5" y="731.241" width="73" height="73" stroke="#F1F2F7"/>
<rect x="-9.5" y="804.241" width="73" height="73" stroke="#F1F2F7"/>
<rect x="63.5" y="804.241" width="73" height="73" stroke="#F1F2F7"/>
<rect x="136.5" y="804.241" width="73" height="73" stroke="#F1F2F7"/>
<rect x="209.5" y="804.241" width="73" height="73" fill="#273240" stroke="#F1F2F7"/>
<rect x="282.5" y="804.241" width="73" height="73" stroke="#F1F2F7"/>
<rect x="355.5" y="804.241" width="73" height="73" stroke="#F1F2F7"/>
<rect x="428.5" y="804.241" width="73" height="73" stroke="#F1F2F7"/>
<rect x="501.5" y="804.241" width="73" height="73" stroke="#F1F2F7"/>
<rect x="574.5" y="804.241" width="73" height="73" stroke="#F1F2F7"/>
<rect x="647.5" y="804.241" width="73" height="73" stroke="#F1F2F7"/>
<rect x="720.5" y="804.241" width="73" height="73" stroke="#F1F2F7"/>
<rect x="793.5" y="804.241" width="73" height="73" stroke="#F1F2F7"/>
<rect x="866.5" y="804.241" width="73" height="73" stroke="#F1F2F7"/>
<rect x="939.5" y="804.241" width="73" height="73" stroke="#F1F2F7"/>
<rect x="1012.5" y="804.241" width="73" height="73" stroke="#F1F2F7"/>
<rect x="1085.5" y="804.241" width="73" height="73" stroke="#F1F2F7"/>
<rect x="1158.5" y="804.241" width="73" height="73" fill="#273240" stroke="#F1F2F7"/>
<rect x="1231.5" y="804.241" width="73" height="73" stroke="#F1F2F7"/>
<rect x="1304.5" y="804.241" width="73" height="73" stroke="#F1F2F7"/>
<rect x="1377.5" y="804.241" width="73" height="73" stroke="#F1F2F7"/>
<rect x="-9.5" y="877.241" width="73" height="73" stroke="#F1F2F7"/>
<rect x="63.5" y="877.241" width="73" height="73" stroke="#F1F2F7"/>
<rect x="136.5" y="877.241" width="73" height="73" stroke="#F1F2F7"/>
<rect x="209.5" y="877.241" width="73" height="73" stroke="#F1F2F7"/>
<rect x="282.5" y="877.241" width="73" height="73" stroke="#F1F2F7"/>
<rect x="355.5" y="877.241" width="73" height="73" stroke="#F1F2F7"/>
<rect x="428.5" y="877.241" width="73" height="73" stroke="#F1F2F7"/>
<rect x="501.5" y="877.241" width="73" height="73" stroke="#F1F2F7"/>
<rect x="574.5" y="877.241" width="73" height="73" stroke="#F1F2F7"/>
<rect x="647.5" y="877.241" width="73" height="73" stroke="#F1F2F7"/>
<rect x="720.5" y="877.241" width="73" height="73" stroke="#F1F2F7"/>
<rect x="793.5" y="877.241" width="73" height="73" stroke="#F1F2F7"/>
<rect x="866.5" y="877.241" width="73" height="73" stroke="#F1F2F7"/>
<rect x="939.5" y="877.241" width="73" height="73" stroke="#F1F2F7"/>
<rect x="1012.5" y="877.241" width="73" height="73" stroke="#F1F2F7"/>
<rect x="1085.5" y="877.241" width="73" height="73" stroke="#F1F2F7"/>
<rect x="1158.5" y="877.241" width="73" height="73" stroke="#F1F2F7"/>
<rect x="1231.5" y="877.241" width="73" height="73" stroke="#F1F2F7"/>
<rect x="1304.5" y="877.241" width="73" height="73" stroke="#F1F2F7"/>
<rect x="1377.5" y="877.241" width="73" height="73" stroke="#F1F2F7"/>
</g>
<defs>
<clipPath id="clip0_63_37065">
<rect width="1440" height="919" fill="white" transform="translate(0 0.741211)"/>
</clipPath>
</defs>
</svg>
